REM COMMENT "Album with a hidden pre-gap track before track 1"
PERFORMER "Cryptic Artist"
TITLE "Hidden Intro"
FILE "hidden.wav" WAVE
  TRACK 01 AUDIO
    TITLE "Visible Opener"
    INDEX 00 00:00:00
    INDEX 01 00:30:00
  TRACK 02 AUDIO
    TITLE "Second"
    INDEX 01 04:12:37
  TRACK 03 AUDIO
    TITLE "Third"
    INDEX 01 08:00:00
